<svg width="50" height="50" viewBox="0 0 50 50" fill="none" xmlns="http://www.w3.org/2000/svg">
<path d="M31.25 10.4167H37.5L34.375 14.5834L31.25 10.4167ZM10.4167 4.16669H39.5833C40.6884 4.16669 41.7482 4.60567 42.5296 5.38708C43.311 6.16848 43.75 7.22829 43.75 8.33335V41.6667C43.75 43.9792 41.8958 45.8334 39.5833 45.8334H10.4167C9.3116 45.8334 8.25179 45.3944 7.47039 44.613C6.68899 43.8316 6.25 42.7718 6.25 41.6667V8.33335C6.25 6.04169 8.125 4.16669 10.4167 4.16669ZM10.4167 8.33335V16.6667H39.5833V8.33335H10.4167ZM10.4167 41.6667H39.5833V20.8334H10.4167V41.6667ZM14.5833 25H35.4167V29.1667H14.5833V25ZM14.5833 33.3334H35.4167V37.5H14.5833V33.3334Z" fill="black"/>
</svg>
